<mxfile host="app.diagrams.net" modified="2024-04-21T19:10:18.345Z" agent="Mozilla/5.0 (Windows NT 10.0; Win64; x64) AppleWebKit/537.36 (KHTML, like Gecko) Chrome/123.0.0.0 Safari/537.36" version="24.2.7" etag="JNV5YgEur_l8RqSBGDmL" type="github">
  <diagram name="Page-1" id="QvkqbvcATKDburt8dnq7">
    <mxGraphModel>
      <root>
        <mxCell id="0" />
        <mxCell id="1" parent="0" />
      </root>
    </mxGraphModel>
  </diagram>
</mxfile>
